<svg xmlns="http://www.w3.org/2000/svg" xmlns:xlink="http://www.w3.org/1999/xlink" width="1080" zoomAndPan="magnify" viewBox="0 0 810 809.999993" height="1080" preserveAspectRatio="xMidYMid meet" version="1.0"><defs><g/><clipPath id="23309648aa"><path d="M 516 231.441406 L 749 231.441406 L 749 550.191406 L 516 550.191406 Z M 516 231.441406 " clip-rule="nonzero"/></clipPath></defs><g fill="#0a4049" fill-opacity="1"><g transform="translate(211.817423, 405.250178)"><g><path d="M 1.726562 -43.132812 L 1.726562 -42.617188 C 5.003906 -42.617188 5.003906 -38.90625 5.003906 -36.792969 L 5.003906 -6.339844 C 5.003906 -4.226562 5.003906 -0.519531 1.726562 -0.519531 L 1.726562 0 L 20.875 0 C 30.667969 0 35.542969 -5.476562 35.542969 -11.863281 C 35.542969 -17.855469 31.703125 -22.429688 24.113281 -23.164062 C 37.914062 -26.226562 36.277344 -43.132812 20.574219 -43.132812 Z M 9.316406 -22.558594 L 18.332031 -22.558594 C 26.484375 -22.558594 31.054688 -18.074219 31.054688 -11.644531 C 31.054688 -6.167969 26.3125 -0.863281 18.289062 -0.863281 L 9.316406 -0.863281 Z M 9.316406 -42.269531 L 18.632812 -42.269531 C 33.472656 -42.269531 32.4375 -23.421875 16.910156 -23.421875 L 9.316406 -23.421875 Z M 9.316406 -42.269531 "/></g></g></g><g fill="#0a4049" fill-opacity="1"><g transform="translate(249.509792, 405.250178)"><g><path d="M 1.726562 -6.816406 C 1.726562 0.648438 6.46875 0.90625 8.453125 0.90625 C 14.664062 0.863281 19.109375 -7.203125 21.351562 -12.507812 L 21.351562 -2.890625 C 21.351562 -0.777344 21.523438 0.90625 23.207031 0.90625 C 26.007812 0.90625 28.941406 -2.890625 31.273438 -5.21875 L 30.925781 -5.738281 C 29.246094 -3.839844 27.691406 -2.933594 26.699219 -2.933594 C 26.054688 -2.933594 25.664062 -3.320312 25.664062 -4.097656 L 25.664062 -22.558594 C 25.664062 -24.671875 25.664062 -27.304688 28.941406 -27.304688 L 28.941406 -27.820312 L 20.574219 -27.820312 C 10.695312 -27.820312 1.726562 -15.785156 1.726562 -6.816406 Z M 5.390625 -7.160156 C 5.390625 -17.726562 13.199219 -26.914062 19.839844 -26.914062 L 21.351562 -26.914062 L 21.351562 -14.621094 C 19.539062 -10.136719 15.183594 -1.078125 9.53125 -1.078125 C 7.203125 -1.078125 5.390625 -4.140625 5.390625 -7.160156 Z M 5.390625 -7.160156 "/></g></g></g><g fill="#0a4049" fill-opacity="1"><g transform="translate(280.77634, 405.250178)"><g><path d="M 8.238281 17.210938 C 17.554688 17.210938 29.761719 12.722656 29.761719 2.589844 C 29.761719 -2.199219 26.007812 -3.796875 22.429688 -3.796875 C 15.097656 -3.796875 11.6875 0.605469 6.816406 0.605469 C 5.5625 0.605469 4.398438 0.0429688 4.398438 -1.507812 C 4.398438 -3.710938 7.589844 -5.046875 8.929688 -5.5625 C 10.007812 -5.261719 11.171875 -5.132812 12.378906 -5.132812 C 21.351562 -5.132812 26.699219 -12.722656 26.699219 -20.230469 C 26.699219 -25.277344 23.59375 -27.863281 19.367188 -28.511719 C 22.644531 -28.511719 27.992188 -28.339844 27.992188 -29.933594 L 27.992188 -34.464844 L 27.519531 -34.464844 C 27.390625 -31.660156 24.242188 -28.683594 17.082031 -28.683594 C 8.109375 -28.683594 2.761719 -21.09375 2.761719 -13.585938 C 2.761719 -9.53125 4.789062 -7.074219 7.808594 -5.910156 C 5.695312 -4.832031 3.363281 -3.40625 3.40625 -0.777344 C 3.449219 1.207031 5.046875 2.414062 6.945312 2.933594 C 3.96875 4.398438 0 6.730469 0 10.785156 C 0 15.011719 3.839844 17.210938 8.238281 17.210938 Z M 8.023438 3.148438 C 8.410156 3.191406 8.757812 3.234375 9.144531 3.234375 C 14.320312 3.234375 18.160156 -0.472656 23.980469 -0.472656 C 27.21875 -0.472656 28.855469 0.820312 28.855469 2.976562 C 28.855469 11.6875 17.855469 15.355469 11.515625 15.355469 C 6.597656 15.355469 3.625 12.464844 3.625 9.230469 C 3.625 7.074219 5.003906 4.789062 8.023438 3.148438 Z M 15.65625 -27.605469 C 20.746094 -27.605469 22.644531 -23.164062 22.644531 -18.675781 C 22.644531 -12.679688 19.753906 -6.082031 13.757812 -6.082031 C 8.625 -6.082031 6.773438 -10.742188 6.773438 -15.226562 C 6.773438 -21.222656 9.660156 -27.605469 15.65625 -27.605469 Z M 15.65625 -27.605469 "/></g></g></g><g fill="#0a4049" fill-opacity="1"><g transform="translate(309.670944, 405.250178)"><g/></g></g><g fill="#0a4049" fill-opacity="1"><g transform="translate(325.843296, 405.250178)"><g><path d="M 0.863281 0 L 11.730469 0 L 11.730469 -0.519531 C 8.453125 -0.519531 8.453125 -4.226562 8.453125 -6.339844 L 8.453125 -26.3125 C 8.453125 -28.078125 8.109375 -28.683594 7.375 -28.683594 C 6.6875 -28.683594 6.039062 -27.734375 4.789062 -26.828125 C 3.625 -25.964844 1.898438 -25.148438 0.863281 -25.148438 L 0.863281 -24.628906 C 2.457031 -24.628906 2.847656 -25.105469 3.582031 -25.105469 C 4.140625 -25.105469 4.140625 -24.371094 4.140625 -23.207031 L 4.140625 -6.339844 C 4.140625 -4.226562 4.140625 -0.519531 0.863281 -0.519531 Z M 3.625 -30.96875 C 4.097656 -30.539062 4.660156 -30.28125 5.261719 -30.28125 C 6.039062 -30.28125 6.902344 -30.667969 7.679688 -31.488281 C 8.972656 -32.824219 9.230469 -34.421875 8.109375 -35.542969 C 7.679688 -35.972656 7.160156 -36.1875 6.554688 -36.1875 C 5.78125 -36.1875 4.875 -35.757812 4.097656 -34.980469 C 2.761719 -33.644531 2.542969 -32.003906 3.625 -30.96875 Z M 3.625 -30.96875 "/></g></g></g><g fill="#0a4049" fill-opacity="1"><g transform="translate(338.436167, 405.250178)"><g><path d="M 4.269531 -27.261719 L 4.269531 -2.933594 C 4.269531 -0.820312 4.441406 0.863281 6.125 0.863281 C 8.929688 0.863281 11.863281 -2.933594 14.191406 -5.261719 L 13.847656 -5.78125 C 12.164062 -3.882812 10.609375 -2.976562 9.617188 -2.976562 C 8.972656 -2.976562 8.582031 -3.363281 8.582031 -4.140625 L 8.582031 -27.261719 C 10.871094 -27.21875 13.199219 -26.871094 14.75 -26.183594 L 14.75 -27.820312 L 8.582031 -27.820312 L 8.582031 -41.277344 L 7.722656 -41.277344 C 7.722656 -37.65625 7.9375 -27.820312 0 -27.820312 L 0 -27.304688 Z M 4.269531 -27.261719 "/></g></g></g><g fill="#0a4049" fill-opacity="1"><g transform="translate(353.185342, 405.250178)"><g/></g></g><g fill="#0a4049" fill-opacity="1"><g transform="translate(369.357694, 405.250178)"><g><path d="M 0 -27.820312 L 0 -27.304688 C 2.933594 -27.304688 4.097656 -25.320312 5.21875 -22.515625 C 9.058594 -12.941406 10.914062 -8.066406 14.148438 0.300781 C 14.277344 0.691406 14.492188 0.90625 14.664062 0.90625 C 14.839844 0.90625 15.054688 0.691406 15.183594 0.300781 C 18.117188 -7.289062 19.882812 -12.035156 23.078125 -19.972656 C 26.269531 -12.035156 28.035156 -7.289062 30.96875 0.300781 C 31.097656 0.691406 31.316406 0.90625 31.488281 0.90625 C 31.660156 0.90625 31.875 0.691406 32.003906 0.300781 C 35.242188 -8.066406 37.09375 -12.984375 40.933594 -22.515625 C 42.054688 -25.320312 43.175781 -27.304688 45.550781 -27.304688 L 45.550781 -27.820312 L 37.441406 -27.820312 L 37.441406 -27.304688 C 39.769531 -27.304688 40.113281 -26.613281 40.113281 -25.578125 C 40.113281 -22.601562 35.542969 -11.214844 33.386719 -5.78125 C 30.238281 -13.933594 29.332031 -15.613281 26.140625 -24.542969 C 25.578125 -26.097656 26.097656 -27.304688 28.253906 -27.304688 L 28.253906 -27.820312 L 16.820312 -27.820312 L 16.820312 -27.304688 C 19.753906 -27.304688 20.875 -25.277344 22.042969 -22.515625 C 22.171875 -22.214844 22.300781 -21.867188 22.429688 -21.566406 C 20.964844 -16.867188 18.117188 -9.75 16.519531 -5.78125 C 13.414062 -13.933594 12.507812 -15.613281 9.316406 -24.542969 C 8.757812 -26.097656 9.273438 -27.304688 11.429688 -27.304688 L 11.429688 -27.820312 Z M 0 -27.820312 "/></g></g></g><g fill="#0a4049" fill-opacity="1"><g transform="translate(414.899038, 405.250178)"><g><path d="M 0.863281 0 L 11.730469 0 L 11.730469 -0.519531 C 8.453125 -0.519531 8.453125 -4.226562 8.453125 -6.339844 L 8.453125 -26.3125 C 8.453125 -28.078125 8.109375 -28.683594 7.375 -28.683594 C 6.6875 -28.683594 6.039062 -27.734375 4.789062 -26.828125 C 3.625 -25.964844 1.898438 -25.148438 0.863281 -25.148438 L 0.863281 -24.628906 C 2.457031 -24.628906 2.847656 -25.105469 3.582031 -25.105469 C 4.140625 -25.105469 4.140625 -24.371094 4.140625 -23.207031 L 4.140625 -6.339844 C 4.140625 -4.226562 4.140625 -0.519531 0.863281 -0.519531 Z M 3.625 -30.96875 C 4.097656 -30.539062 4.660156 -30.28125 5.261719 -30.28125 C 6.039062 -30.28125 6.902344 -30.667969 7.679688 -31.488281 C 8.972656 -32.824219 9.230469 -34.421875 8.109375 -35.542969 C 7.679688 -35.972656 7.160156 -36.1875 6.554688 -36.1875 C 5.78125 -36.1875 4.875 -35.757812 4.097656 -34.980469 C 2.761719 -33.644531 2.542969 -32.003906 3.625 -30.96875 Z M 3.625 -30.96875 "/></g></g></g><g fill="#0a4049" fill-opacity="1"><g transform="translate(427.491916, 405.250178)"><g><path d="M 4.269531 -27.261719 L 4.269531 -2.933594 C 4.269531 -0.820312 4.441406 0.863281 6.125 0.863281 C 8.929688 0.863281 11.863281 -2.933594 14.191406 -5.261719 L 13.847656 -5.78125 C 12.164062 -3.882812 10.609375 -2.976562 9.617188 -2.976562 C 8.972656 -2.976562 8.582031 -3.363281 8.582031 -4.140625 L 8.582031 -27.261719 C 10.871094 -27.21875 13.199219 -26.871094 14.75 -26.183594 L 14.75 -27.820312 L 8.582031 -27.820312 L 8.582031 -41.277344 L 7.722656 -41.277344 C 7.722656 -37.65625 7.9375 -27.820312 0 -27.820312 L 0 -27.304688 Z M 4.269531 -27.261719 "/></g></g></g><g fill="#0a4049" fill-opacity="1"><g transform="translate(442.241091, 405.250178)"><g><path d="M 3.625 -43.523438 C 4.398438 -43.523438 4.355469 -42.789062 4.355469 -41.625 L 4.355469 -6.296875 C 4.355469 -4.183594 4.355469 -0.519531 1.078125 -0.519531 L 1.078125 0 L 11.949219 0 L 11.949219 -0.519531 C 8.667969 -0.519531 8.667969 -4.183594 8.667969 -6.296875 L 8.667969 -20.015625 C 10.179688 -21.953125 14.96875 -27.089844 20.574219 -27.089844 C 23.851562 -27.089844 23.851562 -23.378906 23.851562 -21.265625 L 23.851562 -2.933594 C 23.851562 -0.820312 24.027344 0.863281 25.707031 0.863281 C 28.511719 0.863281 31.445312 -2.933594 33.773438 -5.261719 L 33.429688 -5.78125 C 31.746094 -3.882812 30.195312 -2.976562 29.203125 -2.976562 C 28.554688 -2.976562 28.167969 -3.363281 28.167969 -4.140625 L 28.167969 -20.445312 C 28.167969 -24.542969 27.605469 -28.683594 22.515625 -28.683594 C 17.511719 -28.683594 12.464844 -25.363281 8.667969 -21.394531 L 8.667969 -43.652344 C 8.667969 -45.417969 7.722656 -46.023438 6.988281 -46.023438 C 6.46875 -46.023438 5.605469 -45.074219 3.019531 -44.082031 C 1.554688 -43.523438 0.214844 -43.132812 -1.078125 -43.132812 L -1.078125 -42.617188 C 0.605469 -42.617188 2.890625 -43.523438 3.625 -43.523438 Z M 3.625 -43.523438 "/></g></g></g><g fill="#0a4049" fill-opacity="1"><g transform="translate(67.170824, 547.215167)"><g><path d="M 13.636719 -151.535156 L 13.636719 -21.214844 C 13.636719 -10 10.910156 -3.332031 3.789062 -1.515625 L 3.789062 0 L 94.253906 0 C 129.410156 0 147.445312 -23.035156 147.445312 -47.734375 C 147.445312 -76.980469 129.714844 -93.042969 94.253906 -96.378906 C 129.867188 -100.316406 140.472656 -117.441406 140.472656 -134.714844 C 140.472656 -156.386719 124.257812 -172.75 91.527344 -172.75 L 3.789062 -172.75 L 3.789062 -171.234375 C 10.910156 -169.417969 13.636719 -162.75 13.636719 -151.535156 Z M 62.128906 -3.03125 L 62.128906 -94.253906 L 66.222656 -94.253906 C 88.496094 -94.253906 97.285156 -75.617188 97.285156 -49.25 C 97.285156 -21.972656 87.132812 -3.03125 68.34375 -3.03125 Z M 68.644531 -169.71875 C 84.40625 -169.71875 90.46875 -151.839844 90.46875 -133.804688 C 90.46875 -114.714844 84.40625 -97.285156 66.222656 -97.285156 L 62.128906 -97.285156 L 62.128906 -169.71875 Z M 68.644531 -169.71875 "/></g></g></g><g fill="#0a4049" fill-opacity="1"><g transform="translate(221.42469, 547.215167)"><g><path d="M 66.828125 2.878906 C 100.316406 2.878906 127.746094 -20.457031 127.746094 -60.160156 C 127.746094 -99.863281 100.46875 -123.351562 66.980469 -123.351562 C 33.488281 -123.351562 6.0625 -99.863281 6.0625 -60.160156 C 6.0625 -20.457031 33.339844 2.878906 66.828125 2.878906 Z M 55.3125 -60.3125 C 55.3125 -93.347656 54.097656 -120.015625 66.828125 -120.015625 C 79.554688 -120.015625 78.34375 -93.347656 78.34375 -60.3125 C 78.34375 -26.972656 79.554688 -0.304688 66.828125 -0.304688 C 54.097656 -0.304688 55.3125 -26.972656 55.3125 -60.3125 Z M 55.3125 -60.3125 "/></g></g></g><g fill="#0a4049" fill-opacity="1"><g transform="translate(355.222516, 547.215167)"><g><path d="M 1.515625 -108.804688 C 5.304688 -108.804688 11.667969 -103.042969 11.667969 -88.800781 L 11.667969 -21.214844 C 11.667969 -10 8.941406 -3.332031 1.820312 -1.515625 L 1.820312 0 L 66.980469 0 L 66.980469 -1.515625 C 59.855469 -3.332031 57.128906 -10 57.128906 -21.214844 L 57.128906 -90.316406 C 57.128906 -102.285156 66.371094 -108.953125 71.675781 -108.953125 C 73.796875 -108.953125 75.3125 -107.894531 75.3125 -105.621094 C 75.3125 -100.164062 70.765625 -98.195312 70.765625 -89.253906 C 70.765625 -73.796875 81.070312 -63.492188 96.527344 -63.492188 C 112.136719 -63.492188 122.441406 -74.402344 122.441406 -91.527344 C 122.441406 -107.136719 111.984375 -123.351562 89.859375 -123.351562 C 71.222656 -123.351562 60.613281 -110.167969 57.128906 -101.984375 L 57.128906 -123.351562 L 55.613281 -123.351562 C 46.371094 -118.652344 17.882812 -110.316406 1.515625 -110.316406 Z M 1.515625 -108.804688 "/></g></g></g><g fill="#0a4049" fill-opacity="1"><g transform="translate(479.171129, 547.215167)"><g><path d="M 1.515625 -162.597656 L 1.515625 -161.082031 C 5.304688 -161.082031 11.667969 -155.324219 11.667969 -141.082031 L 11.667969 -21.214844 C 11.667969 -10 8.941406 -3.332031 1.820312 -1.515625 L 1.820312 0 L 66.980469 0 L 66.980469 -1.515625 C 59.855469 -3.332031 57.128906 -10 57.128906 -21.214844 L 57.128906 -175.628906 L 55.613281 -175.628906 C 46.371094 -170.933594 17.882812 -162.597656 1.515625 -162.597656 Z M 1.515625 -162.597656 "/></g></g></g><g fill="#0a4049" fill-opacity="1"><g transform="translate(547.661051, 547.215167)"><g><path d="M 69.253906 2.878906 C 94.253906 2.878906 117.894531 -13.335938 117.894531 -34.550781 C 111.53125 -31.972656 105.46875 -30.609375 98.648438 -30.609375 C 79.40625 -30.609375 63.644531 -38.640625 54.25 -53.644531 L 67.886719 -53.644531 C 104.410156 -53.644531 119.863281 -64.101562 119.863281 -84.101562 C 119.863281 -105.46875 100.46875 -123.199219 66.070312 -123.199219 C 31.066406 -123.199219 6.0625 -95.011719 6.0625 -60.160156 C 6.0625 -25.304688 34.246094 2.878906 69.253906 2.878906 Z M 52.582031 -56.523438 C 47.734375 -65.464844 45.007812 -76.675781 45.007812 -90.011719 C 45.007812 -101.527344 49.402344 -119.863281 63.34375 -119.863281 C 75.160156 -119.863281 80.464844 -103.5 80.464844 -90.769531 C 80.464844 -74.859375 73.648438 -56.523438 53.492188 -56.523438 Z M 52.582031 -56.523438 "/></g></g></g><g clip-path="url(#23309648aa)"><path fill="#0a4049" d="M 516.210938 365.984375 L 521.621094 318.171875 C 522.585938 309.792969 529.699219 303.417969 538.148438 303.417969 L 565.054688 303.417969 L 565.054688 289.78125 C 565.054688 257.757812 591.070312 231.738281 623.085938 231.738281 C 655.105469 231.738281 681.121094 257.757812 681.121094 289.78125 L 681.121094 303.417969 L 708.023438 303.417969 C 716.472656 303.417969 723.589844 309.792969 724.550781 318.171875 L 748.863281 531.585938 C 750.046875 541.8125 742.042969 550.710938 731.742188 550.710938 L 722.699219 550.710938 C 685.34375 390.371094 565.648438 368.132812 516.210938 365.984375 Z M 572.464844 320.839844 C 568.390625 320.839844 565.054688 324.175781 565.054688 328.25 C 565.054688 332.328125 568.390625 335.664062 572.464844 335.664062 C 576.542969 335.664062 579.878906 332.328125 579.878906 328.25 C 579.878906 324.175781 576.542969 320.839844 572.464844 320.839844 Z M 666.296875 289.855469 C 666.296875 266.058594 646.953125 246.636719 623.085938 246.636719 C 599.222656 246.636719 579.878906 266.058594 579.878906 289.855469 L 579.878906 303.492188 L 666.296875 303.492188 Z M 673.707031 320.839844 C 669.632812 320.839844 666.296875 324.175781 666.296875 328.25 C 666.296875 332.328125 669.632812 335.664062 673.707031 335.664062 C 677.785156 335.664062 681.121094 332.328125 681.121094 328.25 C 681.121094 324.175781 677.785156 320.839844 673.707031 320.839844 Z M 673.707031 320.839844 " fill-opacity="1" fill-rule="nonzero"/></g></svg>