<svg xmlns="http://www.w3.org/2000/svg" xmlns:xlink="http://www.w3.org/1999/xlink" width="1080" zoomAndPan="magnify" viewBox="0 0 810 809.999993" height="1080" preserveAspectRatio="xMidYMid meet" version="1.0"><defs><g/></defs><g fill="#ffffff" fill-opacity="1"><g transform="translate(120.785085, 474.702099)"><g><path d="M 17.8125 -135.578125 L 64.5 -135.578125 C 77.664062 -135.578125 87.472656 -132.800781 93.921875 -127.25 C 100.378906 -121.695312 103.609375 -113.109375 103.609375 -101.484375 C 103.609375 -92.835938 101.960938 -86.023438 98.671875 -81.046875 C 95.378906 -76.078125 90.632812 -72.429688 84.4375 -70.109375 C 92.707031 -67.398438 98.8125 -63.300781 102.75 -57.8125 C 106.6875 -52.320312 108.65625 -44.863281 108.65625 -35.4375 C 108.65625 -22.914062 105.234375 -13.878906 98.390625 -8.328125 C 91.546875 -2.773438 81.472656 0 68.171875 0 L 17.8125 0 Z M 66.421875 -72.625 C 76.628906 -72.625 84.117188 -75.007812 88.890625 -79.78125 C 93.671875 -84.5625 96.0625 -91.796875 96.0625 -101.484375 C 96.0625 -111.296875 93.578125 -118.300781 88.609375 -122.5 C 83.640625 -126.695312 75.535156 -128.796875 64.296875 -128.796875 L 24.984375 -128.796875 L 24.984375 -72.625 Z M 67.984375 -6.78125 C 78.828125 -6.78125 87.117188 -9.101562 92.859375 -13.75 C 98.609375 -18.394531 101.484375 -25.816406 101.484375 -36.015625 C 101.484375 -47.378906 98.253906 -55.222656 91.796875 -59.546875 C 85.335938 -63.878906 76.878906 -66.046875 66.421875 -66.046875 L 24.984375 -66.046875 L 24.984375 -6.78125 Z M 67.984375 -6.78125 "/></g></g></g><g fill="#ffffff" fill-opacity="1"><g transform="translate(241.055197, 474.702099)"><g><path d="M 64.6875 1.75 C 51.382812 1.75 40.957031 -0.640625 33.40625 -5.421875 C 25.851562 -10.203125 20.523438 -17.5625 17.421875 -27.5 C 14.328125 -37.445312 12.78125 -50.679688 12.78125 -67.203125 C 12.78125 -83.472656 14.394531 -96.707031 17.625 -106.90625 C 20.851562 -117.101562 26.242188 -124.71875 33.796875 -129.75 C 41.347656 -134.789062 51.582031 -137.3125 64.5 -137.3125 C 77.40625 -137.3125 87.632812 -134.828125 95.1875 -129.859375 C 102.738281 -124.890625 108.160156 -117.269531 111.453125 -107 C 114.742188 -96.738281 116.390625 -83.28125 116.390625 -66.625 C 116.390625 -49.582031 114.804688 -36.15625 111.640625 -26.34375 C 108.484375 -16.53125 103.160156 -9.394531 95.671875 -4.9375 C 88.179688 -0.476562 77.851562 1.75 64.6875 1.75 Z M 64.6875 -4.84375 C 76.4375 -4.84375 85.472656 -6.875 91.796875 -10.9375 C 98.128906 -15.007812 102.582031 -21.429688 105.15625 -30.203125 C 107.738281 -38.984375 109.03125 -51.125 109.03125 -66.625 C 109.03125 -81.988281 107.675781 -94.285156 104.96875 -103.515625 C 102.257812 -112.742188 97.675781 -119.585938 91.21875 -124.046875 C 84.757812 -128.503906 75.851562 -130.734375 64.5 -130.734375 C 53 -130.734375 44.019531 -128.535156 37.5625 -124.140625 C 31.113281 -119.753906 26.566406 -113.007812 23.921875 -103.90625 C 21.273438 -94.800781 19.953125 -82.566406 19.953125 -67.203125 C 19.953125 -51.191406 21.304688 -38.734375 24.015625 -29.828125 C 26.722656 -20.921875 31.269531 -14.53125 37.65625 -10.65625 C 44.050781 -6.78125 53.0625 -4.84375 64.6875 -4.84375 Z M 64.6875 -4.84375 "/></g></g></g><g fill="#ffffff" fill-opacity="1"><g transform="translate(369.846857, 474.702099)"><g><path d="M 17.8125 -135.578125 L 66.421875 -135.578125 C 79.984375 -135.578125 90.085938 -132.441406 96.734375 -126.171875 C 103.390625 -119.910156 106.71875 -110.066406 106.71875 -96.640625 C 106.71875 -73.523438 97.351562 -60.359375 78.625 -57.140625 L 109.03125 0 L 101.09375 0 L 71.078125 -56.171875 L 24.984375 -56.171875 L 24.984375 0 L 17.8125 0 Z M 66.421875 -62.75 C 77.523438 -62.75 85.820312 -65.425781 91.3125 -70.78125 C 96.800781 -76.144531 99.546875 -84.507812 99.546875 -95.875 C 99.546875 -107.226562 96.863281 -115.550781 91.5 -120.84375 C 86.144531 -126.144531 77.785156 -128.796875 66.421875 -128.796875 L 24.984375 -128.796875 L 24.984375 -62.75 Z M 66.421875 -62.75 "/></g></g></g><g fill="#ffffff" fill-opacity="1"><g transform="translate(488.567604, 474.702099)"><g><path d="M 90.828125 -6.578125 L 90.828125 0 L 17.8125 0 L 17.8125 -135.578125 L 24.984375 -135.578125 L 24.984375 -6.578125 Z M 90.828125 -6.578125 "/></g></g></g><g fill="#ffffff" fill-opacity="1"><g transform="translate(582.304687, 474.702099)"><g><path d="M 24.984375 -72.4375 L 85.40625 -72.4375 L 85.40625 -66.046875 L 24.984375 -66.046875 L 24.984375 -6.390625 L 97.03125 -6.390625 L 97.03125 0 L 17.8125 0 L 17.8125 -135.578125 L 97.03125 -135.578125 L 97.03125 -129.171875 L 24.984375 -129.171875 Z M 24.984375 -72.4375 "/></g></g></g></svg>